<?xml version="1.0" standalone="no"?>
<!DOCTYPE svg PUBLIC "-//W3C//DTD SVG 20010904//EN"
 "http://www.w3.org/TR/2001/REC-SVG-20010904/DTD/svg10.dtd">
<svg version="1.0" xmlns="http://www.w3.org/2000/svg"
 width="512.000000pt" height="512.000000pt" viewBox="0 0 512.000000 512.000000"
 preserveAspectRatio="xMidYMid meet">

<g transform="translate(0.000000,512.000000) scale(0.100000,-0.100000)"
fill="#000000" stroke="none">
<path d="M2392 5050 c-557 -79 -988 -483 -1108 -1041 -26 -118 -26 -380 0
-499 57 -265 173 -480 360 -666 197 -196 434 -320 691 -361 55 -9 106 -17 113
-19 9 -3 12 -42 12 -154 l0 -150 -960 0 c-1044 0 -1002 2 -1028 -55 -8 -17
-12 -95 -12 -240 l0 -213 -64 -30 c-91 -42 -149 -100 -194 -190 -35 -72 -37
-81 -37 -172 0 -91 2 -100 37 -171 21 -41 46 -83 56 -92 19 -17 17 -20 -48
-85 -73 -73 -120 -157 -139 -250 -15 -74 -15 -513 1 -547 25 -54 31 -55 488
-55 457 0 463 1 488 55 16 34 16 473 1 547 -19 93 -66 177 -139 250 -65 65
-67 68 -48 85 10 9 35 51 56 92 35 71 37 80 37 171 0 91 -2 100 -37 172 -45
90 -103 148 -194 190 l-64 30 0 154 0 154 900 0 900 0 0 -154 0 -154 -64 -30
c-91 -42 -149 -100 -194 -190 -35 -72 -37 -81 -37 -172 0 -91 2 -100 37 -171
21 -41 46 -83 56 -92 19 -17 17 -20 -48 -85 -73 -73 -120 -157 -139 -250 -15
-74 -15 -513 1 -547 25 -54 31 -55 488 -55 457 0 463 1 488 55 16 34 16 473 1
547 -19 93 -66 177 -139 250 -65 65 -67 68 -48 85 10 9 35 51 56 92 35 71 37
80 37 171 0 91 -2 100 -37 172 -45 90 -103 148 -194 190 l-64 30 0 154 0 154
900 0 900 0 0 -154 0 -154 -64 -30 c-91 -42 -149 -100 -194 -190 -35 -72 -37
-81 -37 -172 0 -91 2 -100 37 -171 21 -41 46 -83 56 -92 19 -17 17 -20 -48
-85 -73 -73 -120 -157 -139 -250 -15 -74 -15 -513 1 -547 25 -54 31 -55 488
-55 457 0 463 1 488 55 16 34 16 473 1 547 -19 93 -66 177 -139 250 -65 65
-67 68 -48 85 10 9 35 51 56 92 35 71 37 80 37 171 0 91 -2 100 -37 172 -45
90 -103 148 -194 190 l-64 30 0 213 c0 145 -4 223 -12 240 -26 57 16 55 -1028
55 l-961 0 3 152 3 152 85 12 c471 63 884 408 1040 869 52 153 64 235 64 415
0 122 -4 187 -18 250 -57 265 -173 479 -360 666 -184 184 -389 297 -646 355
-98 22 -340 33 -438 19z m393 -214 c219 -47 400 -148 560 -311 311 -318 399
-781 226 -1196 -46 -109 -137 -244 -227 -335 l-79 -79 -6 180 c-6 207 -19 269
-82 390 -48 92 -151 206 -230 256 -29 18 -54 34 -56 36 -2 1 16 24 40 51 77
86 129 218 129 329 0 273 -228 503 -500 503 -270 0 -500 -230 -500 -500 0
-116 49 -243 126 -329 26 -29 45 -53 43 -54 -2 -2 -27 -18 -56 -36 -79 -50
-182 -164 -230 -256 -63 -121 -76 -183 -82 -390 l-6 -180 -79 79 c-137 138
-230 303 -283 505 -22 81 -26 120 -27 246 -1 167 10 243 57 375 59 170 139
295 272 425 168 165 374 267 611 305 81 12 294 5 379 -14z m-91 -410 c105 -51
161 -144 161 -266 0 -85 -21 -142 -74 -203 -82 -92 -237 -121 -353 -64 -160
79 -215 278 -118 430 80 126 246 170 384 103z m-32 -777 c191 -40 352 -203
388 -394 7 -37 10 -142 8 -270 l-3 -210 -80 -32 c-148 -60 -242 -77 -415 -77
-173 0 -267 17 -415 77 l-80 32 -3 210 c-2 128 1 233 8 270 19 98 65 182 140
256 125 123 286 173 452 138z m-1992 -2223 c59 -39 85 -89 85 -166 0 -78 -26
-127 -88 -168 -56 -37 -153 -39 -210 -3 -76 47 -111 140 -88 229 14 51 75 117
123 131 53 16 135 6 178 -23z m2000 0 c59 -39 85 -89 85 -166 0 -78 -26 -127
-88 -168 -56 -37 -153 -39 -210 -3 -76 47 -111 140 -88 229 14 51 75 117 123
131 53 16 135 6 178 -23z m2000 0 c59 -39 85 -89 85 -166 0 -78 -26 -127 -88
-168 -56 -37 -153 -39 -210 -3 -76 47 -111 140 -88 229 14 51 75 117 123 131
53 16 135 6 178 -23z m-3976 -600 c62 -31 109 -80 140 -145 19 -41 21 -68 24
-233 l4 -188 -301 0 -301 0 0 168 c0 188 10 242 59 309 84 116 243 154 375 89z
m2000 0 c62 -31 109 -80 140 -145 19 -41 21 -68 24 -233 l4 -188 -301 0 -301
0 0 168 c0 188 10 242 59 309 84 116 243 154 375 89z m2000 0 c62 -31 109 -80
140 -145 19 -41 21 -68 24 -233 l4 -188 -301 0 -301 0 0 168 c0 188 10 242 59
309 84 116 243 154 375 89z"/>
</g>
</svg>
