<?xml version="1.0" standalone="no"?>
<!DOCTYPE svg PUBLIC "-//W3C//DTD SVG 20010904//EN"
 "http://www.w3.org/TR/2001/REC-SVG-20010904/DTD/svg10.dtd">
<svg version="1.0" xmlns="http://www.w3.org/2000/svg"
 width="512.000000pt" height="512.000000pt" viewBox="0 0 512.000000 512.000000"
 preserveAspectRatio="xMidYMid meet">

<g transform="translate(0.000000,512.000000) scale(0.100000,-0.100000)"
fill="#000000" stroke="none">
<path d="M2245 4949 c-89 -13 -219 -56 -310 -101 -454 -227 -678 -752 -528
-1233 118 -379 437 -657 828 -720 125 -21 605 -21 730 0 567 92 952 625 860
1190 -58 359 -303 667 -635 799 -163 65 -196 69 -555 72 -181 1 -357 -2 -390
-7z m370 -177 c162 -44 295 -120 406 -231 70 -70 146 -178 179 -255 l19 -46
-110 0 -110 0 -63 59 c-110 103 -73 96 -536 96 -463 0 -426 7 -536 -96 l-63
-59 -110 0 -110 0 19 46 c89 207 294 390 525 469 141 48 350 56 490 17z m443
-12 c174 -46 370 -194 476 -357 25 -39 46 -74 46 -77 0 -3 -49 -6 -109 -6
l-109 0 -47 88 c-26 48 -64 110 -85 137 -41 53 -176 187 -220 218 -14 10 -17
16 -8 13 9 -3 35 -10 56 -16z m-906 -575 c-105 -115 -108 -259 -7 -360 101
-102 245 -98 361 8 l56 50 101 -102 102 -102 -81 -79 -81 -80 -243 0 -242 0
-102 99 c-140 136 -138 135 -327 139 l-156 4 -7 51 c-8 66 -8 148 0 214 l7 51
156 4 c180 4 187 6 287 99 l63 59 82 0 81 0 -50 -55z m672 -4 c100 -93 107
-95 287 -99 l156 -4 7 -51 c8 -66 8 -148 0 -214 l-7 -53 -175 0 -176 0 -178
177 -178 177 -103 -102 c-89 -87 -109 -102 -136 -102 -44 0 -91 47 -91 91 0
27 15 47 102 135 l102 104 163 0 164 0 63 -59z m838 -78 c7 -32 13 -114 13
-183 0 -69 -6 -151 -13 -182 l-13 -58 -118 0 -117 0 12 78 c7 42 13 115 13
162 0 47 -6 120 -13 163 l-12 77 117 0 118 0 13 -57z m-1758 -602 c149 -145
119 -136 456 -136 l285 0 45 27 c25 15 85 67 135 117 l90 91 152 0 152 0 -19
-46 c-79 -184 -265 -364 -459 -443 -125 -52 -194 -65 -341 -65 -147 0 -216 13
-342 65 -192 79 -380 261 -458 443 l-19 46 110 0 111 0 102 -99z m1676 13 c0
-3 -21 -38 -46 -77 -84 -130 -234 -258 -371 -318 -56 -25 -165 -60 -171 -55
-1 2 12 13 31 25 47 29 195 184 238 251 20 30 51 83 68 118 l31 62 110 0 c61
0 110 -3 110 -6z"/>
<path d="M800 3747 c-49 -16 -133 -102 -148 -153 -9 -30 -12 -194 -12 -618 l0
-576 80 0 80 0 0 575 0 576 25 24 c24 25 27 25 200 25 l175 0 0 80 0 80 -182
-1 c-103 -1 -198 -6 -218 -12z"/>
<path d="M4000 3680 l0 -80 135 0 c131 0 137 -1 160 -25 l25 -24 0 -576 0
-575 80 0 80 0 0 576 c0 417 -3 588 -12 616 -6 22 -31 62 -55 88 -61 68 -102
80 -275 80 l-138 0 0 -80z"/>
<path d="M1600 2915 c0 -31 -4 -45 -14 -45 -32 0 -156 -73 -195 -116 -53 -56
-98 -150 -107 -220 l-6 -54 -79 0 -79 0 0 -80 0 -80 79 0 78 0 5 -103 c4 -89
9 -113 35 -168 17 -35 51 -88 77 -117 42 -49 46 -58 46 -107 0 -67 -23 -96
-94 -119 -27 -9 -53 -16 -56 -16 -4 0 -10 38 -12 85 -10 153 -88 273 -221 340
-38 19 -76 35 -83 35 -10 0 -14 14 -14 45 l0 45 -80 0 -80 0 0 -45 c0 -29 -4
-45 -12 -45 -29 0 -140 -62 -182 -101 -56 -51 -112 -159 -121 -234 l-7 -55
-79 0 -79 0 0 -80 0 -80 79 0 78 0 5 -103 c4 -89 9 -113 35 -168 17 -35 51
-88 77 -117 42 -49 46 -58 46 -107 0 -74 -22 -96 -130 -130 -174 -56 -254
-118 -313 -243 l-32 -67 -3 -252 -4 -253 721 0 721 0 0 160 0 160 120 0 120 0
0 -160 0 -160 720 0 720 0 0 160 0 160 120 0 120 0 0 -160 0 -160 721 0 721 0
-4 252 -3 253 -32 67 c-59 125 -139 187 -313 243 -108 34 -130 56 -130 130 0
49 4 58 46 107 26 29 60 82 77 117 26 55 31 79 35 168 l5 103 78 0 79 0 0 80
0 80 -79 0 -79 0 -7 55 c-9 75 -65 183 -121 234 -42 39 -153 101 -181 101 -9
0 -13 16 -13 45 l0 45 -80 0 -80 0 0 -45 c0 -31 -4 -45 -14 -45 -7 0 -45 -16
-83 -35 -133 -67 -211 -187 -221 -340 -2 -47 -8 -85 -12 -85 -3 0 -29 7 -56
16 -71 23 -94 52 -94 119 0 49 4 58 46 107 26 29 60 82 77 117 26 55 31 79 35
168 l5 103 78 0 79 0 0 80 0 80 -79 0 -79 0 -6 54 c-9 70 -54 164 -107 220
-39 43 -163 116 -195 116 -10 0 -14 14 -14 45 l0 45 -80 0 -80 0 0 -45 c0 -29
-4 -45 -12 -45 -29 0 -140 -62 -182 -101 -56 -51 -112 -159 -121 -234 l-7 -55
-79 0 -79 0 0 -80 0 -80 79 0 78 0 5 -103 c4 -89 9 -113 35 -168 17 -35 51
-88 77 -117 42 -49 46 -58 46 -107 0 -74 -22 -96 -130 -131 -47 -15 -90 -29
-96 -31 -8 -3 -13 28 -16 95 -4 84 -10 109 -36 165 -41 89 -99 149 -185 192
-38 19 -76 35 -83 35 -10 0 -14 14 -14 45 l0 45 -80 0 -80 0 0 -45 c0 -31 -4
-45 -14 -45 -7 0 -45 -16 -83 -35 -86 -43 -144 -103 -185 -192 -26 -56 -32
-81 -36 -165 -3 -67 -8 -98 -16 -95 -6 2 -49 16 -96 31 -108 35 -130 57 -130
131 0 49 4 58 46 107 26 29 60 82 77 117 26 55 31 79 35 168 l5 103 78 0 79 0
0 80 0 80 -79 0 -79 0 -6 54 c-9 70 -54 164 -107 220 -39 43 -163 116 -195
116 -10 0 -14 14 -14 45 l0 45 -80 0 -80 0 0 -45z m0 -245 l0 -30 80 0 80 0 0
30 c0 44 23 38 83 -22 34 -34 57 -68 65 -94 23 -80 40 -74 -228 -74 -268 0
-251 -6 -228 74 8 26 31 60 65 94 60 60 83 66 83 22z m1760 0 l0 -30 80 0 80
0 0 30 c0 44 23 38 83 -22 34 -34 57 -68 65 -94 23 -80 40 -74 -228 -74 -268
0 -251 -6 -228 74 8 26 31 60 65 94 60 60 83 66 83 22z m-1440 -427 c0 -92
-21 -145 -79 -209 -58 -62 -74 -99 -79 -186 -3 -56 0 -92 12 -129 l17 -52 -37
-38 c-53 -54 -95 -54 -148 0 l-37 38 17 52 c12 37 15 73 12 129 -5 87 -21 124
-79 186 -58 64 -79 117 -79 209 l0 77 240 0 240 0 0 -77z m1760 0 c0 -92 -21
-145 -79 -209 -58 -62 -74 -99 -79 -186 -3 -56 0 -92 12 -129 l17 -52 -37 -38
c-53 -54 -95 -54 -148 0 l-37 38 17 52 c12 37 15 73 12 129 -5 87 -21 124 -79
186 -58 64 -79 117 -79 209 l0 77 240 0 240 0 0 -77z m-2880 -293 l0 -30 80 0
80 0 0 30 c0 44 23 38 83 -22 34 -34 57 -68 65 -94 23 -80 40 -74 -228 -74
-268 0 -251 -6 -228 74 8 26 31 60 65 94 60 60 83 66 83 22z m1680 0 l0 -30
80 0 80 0 0 30 c0 44 23 38 83 -22 34 -34 57 -68 65 -94 23 -80 40 -74 -228
-74 -268 0 -251 -6 -228 74 8 26 31 60 65 94 60 60 83 66 83 22z m1680 0 l0
-30 80 0 80 0 0 30 c0 44 23 38 83 -22 34 -34 57 -68 65 -94 23 -80 40 -74
-228 -74 -268 0 -251 -6 -228 74 8 26 31 60 65 94 60 60 83 66 83 22z m-3040
-427 c0 -92 -21 -145 -79 -209 -58 -62 -74 -99 -79 -186 -3 -56 0 -92 12 -129
l17 -52 -37 -38 c-30 -31 -45 -39 -74 -39 -29 0 -44 8 -74 39 l-37 38 17 52
c12 37 15 73 12 129 -5 87 -21 124 -79 186 -58 64 -79 117 -79 209 l0 77 240
0 240 0 0 -77z m1680 0 c0 -92 -21 -145 -79 -209 -58 -62 -74 -99 -79 -186 -3
-56 0 -92 12 -129 l17 -52 -37 -38 c-30 -31 -45 -39 -74 -39 -29 0 -44 8 -74
39 l-37 38 17 52 c12 37 15 73 12 129 -5 87 -21 124 -79 186 -58 64 -79 117
-79 209 l0 77 240 0 240 0 0 -77z m1680 0 c0 -92 -21 -145 -79 -209 -58 -62
-74 -99 -79 -186 -3 -56 0 -92 12 -129 l17 -52 -37 -38 c-30 -31 -45 -39 -74
-39 -29 0 -44 8 -74 39 l-37 38 17 52 c12 37 15 73 12 129 -5 87 -21 124 -79
186 -58 64 -79 117 -79 209 l0 77 240 0 240 0 0 -77z m-2898 -73 c96 -44 212
-15 297 73 l43 45 87 -29 c130 -44 146 -56 159 -122 14 -72 49 -139 106 -205
42 -49 46 -58 46 -107 0 -74 -22 -96 -130 -130 -112 -37 -172 -68 -226 -117
-44 -40 -114 -163 -114 -199 0 -18 -10 -19 -130 -19 -120 0 -130 1 -130 19 0
36 -70 159 -114 199 -54 49 -114 80 -226 117 -108 34 -130 56 -130 130 0 49 4
58 46 107 63 72 103 159 111 240 l6 65 76 25 76 25 52 -49 c29 -27 72 -58 95
-68z m1760 0 c96 -43 212 -15 296 73 l44 45 78 -26 77 -25 6 -65 c8 -81 48
-168 111 -240 42 -49 46 -58 46 -107 0 -74 -22 -96 -130 -130 -112 -37 -172
-68 -226 -117 -44 -40 -114 -163 -114 -199 0 -18 -10 -19 -130 -19 -120 0
-130 1 -130 19 0 36 -70 159 -114 199 -54 49 -114 80 -226 117 -108 34 -130
56 -130 130 0 49 4 58 46 107 57 66 88 126 105 201 15 70 26 79 153 123 l91
32 52 -50 c29 -27 72 -58 95 -68z m-2560 -720 c96 -44 209 -16 297 74 l43 44
96 -32 c84 -27 104 -38 147 -81 66 -65 75 -98 75 -274 l0 -141 -560 0 -560 0
0 141 c0 176 9 209 75 274 43 43 63 54 145 81 l95 31 52 -49 c29 -27 72 -58
95 -68z m1680 0 c96 -44 209 -16 297 74 l43 44 96 -32 c84 -27 104 -38 147
-81 66 -65 75 -98 75 -274 l0 -141 -560 0 -560 0 0 141 c0 176 9 209 75 274
43 43 63 54 145 81 l95 31 52 -49 c29 -27 72 -58 95 -68z m1680 0 c96 -44 209
-16 297 74 l43 44 96 -32 c84 -27 104 -38 147 -81 66 -65 75 -98 75 -274 l0
-141 -560 0 -560 0 0 141 c0 176 9 209 75 274 43 43 63 54 145 81 l95 31 52
-49 c29 -27 72 -58 95 -68z"/>
</g>
</svg>
