<?xml version="1.0" standalone="no"?>
<!DOCTYPE svg PUBLIC "-//W3C//DTD SVG 20010904//EN"
 "http://www.w3.org/TR/2001/REC-SVG-20010904/DTD/svg10.dtd">
<svg version="1.0" xmlns="http://www.w3.org/2000/svg"
 width="512.000000pt" height="512.000000pt" viewBox="0 0 512.000000 512.000000"
 preserveAspectRatio="xMidYMid meet">

<g transform="translate(0.000000,512.000000) scale(0.100000,-0.100000)"
fill="#000000" stroke="none">
<path d="M2365 5114 c-16 -2 -73 -9 -125 -15 -546 -62 -1084 -326 -1492 -733
-396 -395 -641 -888 -724 -1461 -22 -149 -25 -523 -5 -665 40 -291 119 -548
247 -808 72 -147 90 -176 116 -186 35 -15 71 -10 91 13 32 36 29 57 -22 153
-138 264 -223 521 -268 808 -25 161 -24 510 0 670 84 537 306 988 667 1351
380 383 834 613 1370 695 143 22 499 25 640 6 224 -31 478 -102 672 -188 136
-60 208 -100 357 -198 l123 -81 -142 -10 c-131 -9 -143 -12 -161 -34 -10 -13
-19 -36 -19 -53 0 -35 40 -78 72 -78 13 0 128 5 257 10 220 9 236 11 258 32
14 13 23 33 23 52 0 38 -117 453 -137 484 -33 53 -105 50 -134 -5 -12 -22 -10
-36 10 -111 40 -147 47 -142 -75 -62 -138 91 -387 215 -535 267 -282 100 -521
142 -829 148 -113 2 -218 2 -235 -1z"/>
<path d="M2334 4369 c-12 -11 -43 -79 -70 -150 l-49 -129 -40 -11 c-106 -28
-231 -77 -337 -131 l-117 -60 -126 56 c-70 31 -140 56 -158 56 -26 0 -51 -20
-174 -143 -122 -122 -143 -148 -143 -174 0 -17 25 -87 56 -156 l56 -126 -71
-143 c-40 -81 -84 -188 -101 -247 -17 -58 -31 -105 -33 -106 -1 -1 -58 -23
-127 -49 -182 -69 -170 -49 -170 -295 0 -194 1 -206 21 -227 12 -12 79 -44
150 -71 l130 -48 10 -40 c24 -98 75 -229 131 -337 l61 -118 -57 -126 c-31 -69
-56 -138 -56 -153 0 -59 94 -97 132 -53 26 29 148 314 148 345 0 16 -19 60
-46 103 -73 121 -129 264 -174 440 -5 23 -17 47 -25 54 -8 6 -69 33 -137 60
l-123 48 0 122 0 122 123 48 c68 27 129 54 137 60 8 7 20 31 25 54 44 175 115
350 192 469 39 61 36 90 -29 233 l-51 112 87 85 86 85 119 -54 c130 -59 165
-64 211 -33 102 69 325 163 449 189 31 6 65 19 76 28 11 9 42 73 69 142 l49
125 122 0 122 0 49 -124 c27 -69 54 -131 62 -138 7 -7 53 -24 103 -37 148 -40
333 -120 429 -185 46 -31 81 -26 211 33 l119 54 86 -85 87 -85 -51 -112 c-63
-138 -68 -173 -34 -225 69 -104 142 -275 183 -425 13 -50 30 -96 37 -103 7 -8
69 -35 138 -62 l124 -49 0 -122 0 -122 -124 -49 c-69 -27 -131 -54 -138 -62
-7 -7 -24 -53 -37 -103 -40 -148 -120 -333 -185 -429 -12 -16 -21 -44 -21 -61
0 -31 121 -316 148 -346 22 -26 86 -24 112 4 31 33 25 65 -36 202 l-57 126 61
118 c54 106 103 231 131 337 l11 40 122 45 c67 25 134 56 150 68 l28 24 0 206
c0 193 -1 207 -20 227 -11 12 -79 44 -150 71 l-130 49 -11 40 c-28 106 -77
231 -131 337 l-61 118 57 126 c31 69 56 140 56 157 0 26 -21 52 -143 174 -122
122 -148 143 -174 143 -17 0 -88 -25 -157 -56 l-126 -57 -118 61 c-108 56
-239 107 -337 131 l-40 10 -49 130 c-27 72 -59 139 -71 151 -20 19 -34 20
-226 20 -194 0 -206 -1 -225 -21z"/>
<path d="M4670 3877 c-14 -7 -31 -25 -38 -41 -13 -26 -10 -36 56 -169 76 -153
91 -187 127 -287 257 -714 164 -1512 -249 -2134 -247 -371 -556 -643 -951
-836 -356 -175 -656 -244 -1055 -244 -238 0 -363 14 -566 63 -290 72 -516 172
-777 344 l-108 72 141 10 c131 9 143 12 161 34 10 13 19 36 19 53 0 35 -40 78
-72 78 -13 0 -128 -5 -257 -10 -220 -9 -236 -11 -258 -32 -14 -13 -23 -33 -23
-52 0 -38 117 -453 136 -483 31 -49 84 -53 124 -11 26 28 25 46 -6 152 -14 48
-24 91 -22 96 2 4 50 -24 108 -62 127 -84 377 -210 519 -261 776 -279 1615
-180 2295 271 614 406 1017 1049 1122 1787 23 157 26 521 6 660 -43 301 -120
553 -248 813 -77 155 -89 175 -119 188 -41 17 -34 17 -65 1z"/>
<path d="M2421 3739 c-188 -23 -429 -119 -571 -228 -83 -63 -214 -199 -268
-277 -88 -131 -159 -299 -188 -451 -22 -108 -24 -317 -5 -423 16 -93 64 -244
91 -287 35 -58 109 -57 137 2 16 33 15 37 -10 102 -92 241 -99 468 -20 706
115 348 400 601 768 684 95 22 316 21 413 -1 193 -43 370 -138 506 -271 302
-295 394 -731 237 -1124 -13 -32 -20 -65 -16 -78 15 -61 86 -83 129 -40 46 46
99 226 117 398 49 471 -216 950 -646 1167 -200 102 -459 148 -674 121z"/>
<path d="M2428 3204 c-153 -37 -254 -128 -310 -280 -18 -50 -22 -80 -22 -194
0 -120 3 -144 27 -216 33 -99 92 -193 163 -260 l55 -51 -112 -17 c-317 -49
-505 -151 -583 -315 l-31 -66 -3 -495 c-2 -272 0 -505 3 -517 15 -62 86 -83
130 -38 l25 24 0 478 c0 289 4 492 10 514 46 165 302 264 711 276 418 13 745
-77 829 -227 l25 -45 3 -502 3 -502 26 -21 c44 -34 95 -25 118 21 21 39 22
944 1 1030 -49 209 -259 337 -638 390 l-86 12 48 38 c160 127 248 416 191 638
-24 97 -56 157 -117 217 -104 105 -297 149 -466 108z m280 -174 c100 -43 152
-131 159 -270 11 -186 -73 -365 -202 -433 -55 -29 -155 -29 -210 0 -129 68
-213 247 -202 433 8 160 66 242 202 287 60 20 188 11 253 -17z"/>
<path d="M2053 1610 c-12 -5 -26 -18 -32 -29 -7 -13 -11 -154 -11 -414 l0
-394 23 -21 c45 -42 117 -20 132 40 3 13 5 193 3 401 l-3 379 -28 24 c-30 25
-48 28 -84 14z"/>
<path d="M2984 1597 l-29 -25 -3 -379 c-2 -208 0 -388 3 -401 15 -61 92 -83
133 -39 22 23 22 26 22 419 0 362 -1 398 -17 417 -29 34 -74 37 -109 8z"/>
</g>
</svg>
