<?xml version="1.0" standalone="no"?>
<!DOCTYPE svg PUBLIC "-//W3C//DTD SVG 20010904//EN"
 "http://www.w3.org/TR/2001/REC-SVG-20010904/DTD/svg10.dtd">
<svg version="1.0" xmlns="http://www.w3.org/2000/svg"
 width="512.000000pt" height="512.000000pt" viewBox="0 0 512.000000 512.000000"
 preserveAspectRatio="xMidYMid meet">

<g transform="translate(0.000000,512.000000) scale(0.100000,-0.100000)"
fill="#000000" stroke="none">
<path d="M0 2560 l0 -2390 2560 0 2560 0 0 1875 0 1875 -42 -21 c-24 -12 -440
-235 -925 -496 -486 -260 -889 -476 -898 -479 -13 -5 -15 53 -17 494 l-3 501
-930 -499 -930 -500 -5 1013 -5 1012 -682 3 -683 2 0 -2390z m1020 1880 l0
-170 -340 0 -340 0 0 170 0 170 340 0 340 0 0 -170z m0 -1300 c0 -434 3 -790
8 -790 4 0 426 225 937 499 l930 500 3 -501 c2 -441 4 -499 17 -494 9 3 412
219 898 479 485 261 901 484 925 496 l42 21 0 -1420 0 -1420 -2220 0 -2220 0
0 1703 c0 937 3 1707 7 1710 3 4 156 7 340 7 l333 0 0 -790z"/>
<path d="M1370 1365 l0 -515 595 0 595 0 0 515 0 515 -595 0 -595 0 0 -515z
m848 3 l-3 -173 -252 -3 -253 -2 0 175 0 175 255 0 255 0 -2 -172z"/>
<path d="M3242 1368 l3 -513 595 0 595 0 3 513 2 512 -600 0 -600 0 2 -512z
m853 -3 l0 -170 -255 0 -255 0 -3 160 c-1 87 0 165 2 172 4 11 57 13 258 11
l253 -3 0 -170z"/>
</g>
</svg>
